<?xml version="1.0" encoding="utf-8"?>
<!-- Generator: Adobe Illustrator 18.1.0, SVG Export Plug-In . SVG Version: 6.00 Build 0)  -->
<svg version="1.1" xmlns="http://www.w3.org/2000/svg" xmlns:xlink="http://www.w3.org/1999/xlink" x="0px" y="0px"
	 viewBox="0 0 715.5 669" enable-background="new 0 0 715.5 669" xml:space="preserve">
<g id="Layer_3">
</g>
<g id="Grid" display="none">
	<g display="inline">
		<line fill="none" stroke="#00FFFF" stroke-width="0" stroke-miterlimit="10" x1="-106.2" y1="-439.2" x2="823.8" y2="-439.2"/>
		<line fill="none" stroke="#00FFFF" stroke-width="0" stroke-miterlimit="10" x1="-106.2" y1="-474.7" x2="823.8" y2="-474.7"/>
		<g>
			<line fill="none" stroke="#00FFFF" stroke-width="0" stroke-miterlimit="10" x1="22.2" y1="-536.7" x2="22.2" y2="779.3"/>
			<line fill="none" stroke="#00FFFF" stroke-width="0" stroke-miterlimit="10" x1="695.3" y1="-536.7" x2="695.3" y2="779.3"/>
			<line fill="none" stroke="#00FFFF" stroke-width="0" stroke-miterlimit="10" x1="234.8" y1="-536.7" x2="234.8" y2="779.3"/>
		</g>
	</g>
	<g display="inline">
		<line fill="none" stroke="#00FFFF" stroke-width="0" stroke-miterlimit="10" x1="-106.5" y1="650.9" x2="824" y2="650.9"/>
		<line fill="none" stroke="#FF4FFF" stroke-width="0" stroke-miterlimit="10" x1="-106.5" y1="-263.5" x2="824" y2="-263.5"/>
		<line fill="none" stroke="#FF4FFF" stroke-width="0" stroke-miterlimit="10" x1="-106.5" y1="-243.2" x2="824" y2="-243.2"/>
		<line fill="none" stroke="#FF4FFF" stroke-width="0" stroke-miterlimit="10" x1="-106.5" y1="-222.9" x2="824" y2="-222.9"/>
		<line fill="none" stroke="#FF4FFF" stroke-width="0" stroke-miterlimit="10" x1="-106.5" y1="-202.6" x2="824" y2="-202.6"/>
		<line fill="none" stroke="#FF4FFF" stroke-width="0" stroke-miterlimit="10" x1="-106.5" y1="-182.2" x2="824" y2="-182.2"/>
		<line fill="none" stroke="#FF4FFF" stroke-width="0" stroke-miterlimit="10" x1="-106.5" y1="-161.9" x2="824" y2="-161.9"/>
		<line fill="none" stroke="#FF4FFF" stroke-width="0" stroke-miterlimit="10" x1="-106.5" y1="-141.6" x2="824" y2="-141.6"/>
		<line fill="none" stroke="#FF4FFF" stroke-width="0" stroke-miterlimit="10" x1="-106.5" y1="-121.3" x2="824" y2="-121.3"/>
		<line fill="none" stroke="#FF4FFF" stroke-width="0" stroke-miterlimit="10" x1="-106.5" y1="-101" x2="824" y2="-101"/>
		<line fill="none" stroke="#FF4FFF" stroke-width="0" stroke-miterlimit="10" x1="-106.5" y1="-80.6" x2="824" y2="-80.6"/>
		<line fill="none" stroke="#FF4FFF" stroke-width="0" stroke-miterlimit="10" x1="-106.5" y1="-60.3" x2="824" y2="-60.3"/>
		<line fill="none" stroke="#FF4FFF" stroke-width="0" stroke-miterlimit="10" x1="-106.5" y1="-40" x2="824" y2="-40"/>
		<line fill="none" stroke="#FF4FFF" stroke-width="0" stroke-miterlimit="10" x1="-106.5" y1="-19.7" x2="824" y2="-19.7"/>
		<line fill="none" stroke="#FF4FFF" stroke-width="0" stroke-miterlimit="10" x1="-106.5" y1="0.6" x2="824" y2="0.6"/>
		<line fill="none" stroke="#FF4FFF" stroke-width="0" stroke-miterlimit="10" x1="-106.5" y1="21" x2="824" y2="21"/>
		<line fill="none" stroke="#FF4FFF" stroke-width="0" stroke-miterlimit="10" x1="-106.5" y1="41.3" x2="824" y2="41.3"/>
		<line fill="none" stroke="#FF4FFF" stroke-width="0" stroke-miterlimit="10" x1="-106.5" y1="61.6" x2="824" y2="61.6"/>
		<line fill="none" stroke="#FF4FFF" stroke-width="0" stroke-miterlimit="10" x1="-106.5" y1="81.9" x2="824" y2="81.9"/>
		<line fill="none" stroke="#FF4FFF" stroke-width="0" stroke-miterlimit="10" x1="-106.5" y1="102.2" x2="824" y2="102.2"/>
		<line fill="none" stroke="#FF4FFF" stroke-width="0" stroke-miterlimit="10" x1="-106.5" y1="122.6" x2="824" y2="122.6"/>
		<line fill="none" stroke="#FF4FFF" stroke-width="0" stroke-miterlimit="10" x1="-106.5" y1="142.9" x2="824" y2="142.9"/>
		<line fill="none" stroke="#FF4FFF" stroke-width="0" stroke-miterlimit="10" x1="-106.5" y1="163.2" x2="824" y2="163.2"/>
		<line fill="none" stroke="#FF4FFF" stroke-width="0" stroke-miterlimit="10" x1="-106.5" y1="183.5" x2="824" y2="183.5"/>
		<line fill="none" stroke="#FF4FFF" stroke-width="0" stroke-miterlimit="10" x1="-106.5" y1="203.8" x2="824" y2="203.8"/>
		<line fill="none" stroke="#FF4FFF" stroke-width="0" stroke-miterlimit="10" x1="-106.5" y1="224.2" x2="824" y2="224.2"/>
		<line fill="none" stroke="#FF4FFF" stroke-width="0" stroke-miterlimit="10" x1="-106.5" y1="244.5" x2="824" y2="244.5"/>
		<line fill="none" stroke="#FF4FFF" stroke-width="0" stroke-miterlimit="10" x1="-106.5" y1="264.8" x2="824" y2="264.8"/>
		<line fill="none" stroke="#FF4FFF" stroke-width="0" stroke-miterlimit="10" x1="-106.5" y1="285.1" x2="824" y2="285.1"/>
		<line fill="none" stroke="#FF4FFF" stroke-width="0" stroke-miterlimit="10" x1="-106.5" y1="305.4" x2="824" y2="305.4"/>
		<line fill="none" stroke="#FF4FFF" stroke-width="0" stroke-miterlimit="10" x1="-106.5" y1="325.8" x2="824" y2="325.8"/>
		<line fill="none" stroke="#FF4FFF" stroke-width="0" stroke-miterlimit="10" x1="-106.5" y1="346.1" x2="824" y2="346.1"/>
		<line fill="none" stroke="#FF4FFF" stroke-width="0" stroke-miterlimit="10" x1="-106.5" y1="366.4" x2="824" y2="366.4"/>
		<line fill="none" stroke="#FF4FFF" stroke-width="0" stroke-miterlimit="10" x1="-106.5" y1="386.7" x2="824" y2="386.7"/>
		<line fill="none" stroke="#FF4FFF" stroke-width="0" stroke-miterlimit="10" x1="-106.5" y1="407" x2="824" y2="407"/>
		<line fill="none" stroke="#FF4FFF" stroke-width="0" stroke-miterlimit="10" x1="-106.5" y1="427.4" x2="824" y2="427.4"/>
		<line fill="none" stroke="#FF4FFF" stroke-width="0" stroke-miterlimit="10" x1="-106.5" y1="447.7" x2="824" y2="447.7"/>
		<line fill="none" stroke="#FF4FFF" stroke-width="0" stroke-miterlimit="10" x1="-106.5" y1="468" x2="824" y2="468"/>
		<line fill="none" stroke="#FF4FFF" stroke-width="0" stroke-miterlimit="10" x1="-106.5" y1="488.3" x2="824" y2="488.3"/>
		<line fill="none" stroke="#FF4FFF" stroke-width="0" stroke-miterlimit="10" x1="-106.5" y1="508.6" x2="824" y2="508.6"/>
		<line fill="none" stroke="#FF4FFF" stroke-width="0" stroke-miterlimit="10" x1="-106.5" y1="529" x2="824" y2="529"/>
		<line fill="none" stroke="#FF4FFF" stroke-width="0" stroke-miterlimit="10" x1="-106.5" y1="549.3" x2="824" y2="549.3"/>
		<line fill="none" stroke="#FF4FFF" stroke-width="0" stroke-miterlimit="10" x1="-106.5" y1="569.6" x2="824" y2="569.6"/>
		<line fill="none" stroke="#FF4FFF" stroke-width="0" stroke-miterlimit="10" x1="-106.5" y1="589.9" x2="824" y2="589.9"/>
		<line fill="none" stroke="#FF4FFF" stroke-width="0" stroke-miterlimit="10" x1="-106.5" y1="610.2" x2="824" y2="610.2"/>
		<line fill="none" stroke="#FF4FFF" stroke-width="0" stroke-miterlimit="10" x1="-106.5" y1="630.6" x2="824" y2="630.6"/>
		<line fill="none" stroke="#FF4FFF" stroke-width="0" stroke-miterlimit="10" x1="-106.5" y1="650.9" x2="824" y2="650.9"/>
		<line fill="none" stroke="#FF4FFF" stroke-width="0" stroke-miterlimit="10" x1="-106.5" y1="671.2" x2="824" y2="671.2"/>
		<line fill="none" stroke="#FF4FFF" stroke-width="0" stroke-miterlimit="10" x1="-106.5" y1="691.5" x2="824" y2="691.5"/>
		<line fill="none" stroke="#FF4FFF" stroke-width="0" stroke-miterlimit="10" x1="-106.5" y1="711.8" x2="824" y2="711.8"/>
		<line fill="none" stroke="#FF4FFF" stroke-width="0" stroke-miterlimit="10" x1="-106.5" y1="732.2" x2="824" y2="732.2"/>
		<line fill="none" stroke="#FF4FFF" stroke-width="0" stroke-miterlimit="10" x1="-106.5" y1="752.5" x2="824" y2="752.5"/>
		<line fill="none" stroke="#FF4FFF" stroke-width="0" stroke-miterlimit="10" x1="-106.5" y1="772.8" x2="824" y2="772.8"/>
	</g>
	<g display="inline">
		<rect x="22" y="-270.8" fill="none" stroke="#4F99FF" stroke-width="0" stroke-miterlimit="10" width="673.5" height="921.6"/>
		<line fill="none" stroke="#4F99FF" stroke-width="0" stroke-miterlimit="10" x1="57.5" y1="-270.8" x2="57.5" y2="650.8"/>
		<line fill="none" stroke="#4F99FF" stroke-width="0" stroke-miterlimit="10" x1="92.9" y1="-270.8" x2="92.9" y2="650.8"/>
		<line fill="none" stroke="#4F99FF" stroke-width="0" stroke-miterlimit="10" x1="128.4" y1="-270.8" x2="128.4" y2="650.8"/>
		<line fill="none" stroke="#4F99FF" stroke-width="0" stroke-miterlimit="10" x1="163.8" y1="-270.8" x2="163.8" y2="650.8"/>
		<line fill="none" stroke="#4F99FF" stroke-width="0" stroke-miterlimit="10" x1="199.3" y1="-270.8" x2="199.3" y2="650.8"/>
		<line fill="none" stroke="#4F99FF" stroke-width="0" stroke-miterlimit="10" x1="234.7" y1="-270.8" x2="234.7" y2="650.8"/>
		<line fill="none" stroke="#4F99FF" stroke-width="0" stroke-miterlimit="10" x1="270.1" y1="-270.8" x2="270.1" y2="650.8"/>
		<line fill="none" stroke="#4F99FF" stroke-width="0" stroke-miterlimit="10" x1="305.6" y1="-270.8" x2="305.6" y2="650.8"/>
		<line fill="none" stroke="#4F99FF" stroke-width="0" stroke-miterlimit="10" x1="341" y1="-270.8" x2="341" y2="650.8"/>
		<line fill="none" stroke="#4F99FF" stroke-width="0" stroke-miterlimit="10" x1="376.5" y1="-270.8" x2="376.5" y2="650.8"/>
		<line fill="none" stroke="#4F99FF" stroke-width="0" stroke-miterlimit="10" x1="411.9" y1="-270.8" x2="411.9" y2="650.8"/>
		<line fill="none" stroke="#4F99FF" stroke-width="0" stroke-miterlimit="10" x1="447.4" y1="-270.8" x2="447.4" y2="650.8"/>
		<line fill="none" stroke="#4F99FF" stroke-width="0" stroke-miterlimit="10" x1="482.8" y1="-270.8" x2="482.8" y2="650.8"/>
		<line fill="none" stroke="#4F99FF" stroke-width="0" stroke-miterlimit="10" x1="518.3" y1="-270.8" x2="518.3" y2="650.8"/>
		<line fill="none" stroke="#4F99FF" stroke-width="0" stroke-miterlimit="10" x1="553.7" y1="-270.8" x2="553.7" y2="650.8"/>
		<line fill="none" stroke="#4F99FF" stroke-width="0" stroke-miterlimit="10" x1="589.2" y1="-270.8" x2="589.2" y2="650.8"/>
		<line fill="none" stroke="#4F99FF" stroke-width="0" stroke-miterlimit="10" x1="624.6" y1="-270.8" x2="624.6" y2="650.8"/>
		<line fill="none" stroke="#4F99FF" stroke-width="0" stroke-miterlimit="10" x1="660.1" y1="-270.8" x2="660.1" y2="650.8"/>
	</g>
</g>
<g id="Layer_1">
	<line fill="none" stroke="#B4B2B1" stroke-width="0.4658" x1="-212.2" y1="887.7" x2="-212.2" y2="876.9"/>
	<text transform="matrix(1 0 0 1 -211.0355 562.9066)" fill="#1D1D1B" font-family="'TextbookNew-Light'" font-size="12.5046"> </text>
	<text transform="matrix(1 0 0 1 -230.7494 646.2074)" fill="#1D1D1B" font-family="'TextbookNew-Bold'" font-size="10.9415"> </text>
	<g>
		<polygon fill="#FFBA23" points="524.7,61.3 533.8,51.2 524.7,41.2 524.7,41.1 506.6,41.1 506.6,41.3 497.6,51.2 506.6,61.1 
			506.6,61.3 506.7,61.3 506.7,61.3 506.7,61.3 524.7,61.3 524.7,61.3 524.7,61.3 524.7,61.3 		"/>
		<polygon fill="#FFBA23" points="524.7,122.6 533.8,112.6 524.7,102.6 524.7,102.5 506.6,102.5 506.6,102.6 497.6,112.5 
			506.6,122.5 506.6,122.6 506.7,122.6 506.7,122.6 506.7,122.6 524.7,122.6 524.7,122.6 524.7,122.6 524.7,122.6 		"/>
		<polygon fill="#FFBA23" points="549.6,183.1 558.6,173.1 549.6,163.1 549.6,163 485.4,163 485.4,163.1 476.5,173 485.4,183 
			485.4,183.1 485.5,183.1 485.5,183.1 485.5,183.1 549.5,183.1 549.5,183.1 549.6,183.1 549.6,183.1 		"/>
		<polygon fill="#FFBA23" points="524.7,304.6 533.8,294.6 524.7,284.6 524.7,284.5 506.6,284.5 506.6,284.6 497.6,294.5 
			506.6,304.5 506.6,304.6 506.7,304.6 506.7,304.6 506.7,304.6 524.7,304.6 524.7,304.6 524.7,304.6 524.7,304.6 		"/>
		<polygon fill="#FFBA23" points="524.7,507.3 533.8,497.2 524.7,487.2 524.7,487.1 506.6,487.1 506.6,487.3 497.6,497.2 
			506.6,507.1 506.6,507.3 506.7,507.3 506.7,507.3 506.7,507.3 524.7,507.3 524.7,507.3 524.7,507.3 524.7,507.3 		"/>
		<g>
			<rect x="506.6" y="547.5" fill="#FFBA23" width="18.1" height="20.1"/>
			<polygon fill="#FFBA23" points="506.7,547.5 506.7,567.6 497.6,557.5 			"/>
			<polygon fill="#FFBA23" points="524.7,547.5 524.7,567.6 533.8,557.6 			"/>
		</g>
		<polygon fill="#FFBA23" points="275.7,548.2 275.7,548.1 187.7,548.1 187.6,548.1 187.6,548.3 178.6,558.2 187.6,568.1 
			187.6,568.3 187.7,568.3 187.7,568.3 187.7,568.3 275.7,568.3 275.7,568.3 275.7,568.3 275.7,568.3 275.7,568.3 284.8,558.2 		"/>
		<g>
			<rect x="20.5" y="19.9" fill="#B9C3C6" width="106.4" height="20.1"/>
			<rect x="20.5" y="60.5" fill="#B9C3C6" width="106.4" height="20.1"/>
			<text transform="matrix(1 0 0 1 55.1153 32.8187)" font-family="'TextbookNew-Light'" font-size="14">поезд</text>
			<text transform="matrix(1 0 0 1 54.6571 73.6866)" font-family="'TextbookNew-Light'" font-size="14">турист</text>
			<rect x="20.5" y="101" fill="#B9C3C6" width="106.4" height="20.1"/>
			<text transform="matrix(1 0 0 1 44.3507 113.9205)" font-family="'TextbookNew-Light'" font-size="14">теплоход</text>
			<rect x="20.5" y="141.6" fill="#B9C3C6" width="106.4" height="20.1"/>
			<text transform="matrix(1 0 0 1 54.6571 154.8481)" font-family="'TextbookNew-Light'" font-size="14">катер</text>
			<rect x="20.5" y="182.2" fill="#B9C3C6" width="106.4" height="20.1"/>
			<text transform="matrix(1 0 0 1 45.3507 195.7757)" font-family="'TextbookNew-Light'" font-size="14">пешеход</text>
		</g>
		<text transform="matrix(1 0 0 1 510.0408 54.1866)" font-family="'TextbookNew-Light'" font-size="14">за</text>
		<text transform="matrix(1 0 0 1 509.6555 116.1866)" font-family="'TextbookNew-Light'" font-size="14">со</text>
		<text transform="matrix(1 0 0 1 495.8178 176.1835)" font-family="'TextbookNew-Light'" font-size="14">длиной</text>
		<polygon fill="#FFBA23" points="551.6,630.1 560.6,620.1 551.6,610.1 551.6,610 487.4,610 487.4,610.1 478.5,620 487.4,630 
			487.4,630.1 487.5,630.1 487.5,630.1 487.5,630.1 551.5,630.1 551.5,630.1 551.6,630.1 551.6,630.1 		"/>
		<text transform="matrix(1 0 0 1 497.8178 623.1835)" font-family="'TextbookNew-Light'" font-size="14">длиной</text>
		<g>
			<rect x="339" y="19.6" fill="#B9C3C6" width="106.4" height="20.1"/>
			<rect x="339" y="60.2" fill="#B9C3C6" width="106.4" height="20.1"/>
			<text transform="matrix(1 0 0 1 356.6005 32.5687)" font-family="'TextbookNew-Light'" font-size="14">расстояние</text>
			<text transform="matrix(1 0 0 1 378.573 73.4366)" font-family="'TextbookNew-Light'" font-size="14">путь</text>
			<rect x="339" y="100.8" fill="#B9C3C6" width="106.4" height="20.1"/>
			<text transform="matrix(1 0 0 1 378.8833 113.6705)" font-family="'TextbookNew-Light'" font-size="14">реку</text>
			<rect x="339" y="141.4" fill="#B9C3C6" width="106.4" height="20.1"/>
			<text transform="matrix(1 0 0 1 366.6838 154.5981)" font-family="'TextbookNew-Light'" font-size="14">маршрут</text>
			<rect x="339" y="182" fill="#B9C3C6" width="106.4" height="20.1"/>
			<text transform="matrix(1 0 0 1 365.0986 195.5257)" font-family="'TextbookNew-Light'" font-size="14">половину</text>
		</g>
		<g>
			<rect x="588.6" y="19.6" fill="#B9C3C6" width="106.4" height="20.1"/>
			<rect x="588.6" y="60.2" fill="#B9C3C6" width="106.4" height="20.1"/>
			<text transform="matrix(1 0 0 1 632.6415 32.5687)" font-family="'TextbookNew-Light'" font-size="14">час</text>
			<text transform="matrix(1 0 0 1 622.1354 73.4366)" font-family="'TextbookNew-Light'" font-size="14">минуту</text>
			<rect x="588.6" y="100.8" fill="#B9C3C6" width="106.4" height="20.1"/>
			<text transform="matrix(1 0 0 1 628.8765 113.6705)" font-family="'TextbookNew-Light'" font-size="14">день</text>
			<rect x="588.6" y="141.4" fill="#B9C3C6" width="106.4" height="20.1"/>
			<text transform="matrix(1 0 0 1 610.5085 154.5981)" font-family="'TextbookNew-Light'" font-size="14">скоростью</text>
			<rect x="588.6" y="182" fill="#B9C3C6" width="106.4" height="20.1"/>
			<text transform="matrix(1 0 0 1 635.3857 195.5257)" font-family="'TextbookNew-Light'" font-size="14">км</text>
		</g>
		<g>
			<rect x="20.5" y="243.9" fill="#B9C3C6" width="106.4" height="20.1"/>
			<rect x="20.5" y="284.5" fill="#B9C3C6" width="106.4" height="20.1"/>
			<text transform="matrix(1 0 0 1 49.3605 256.8187)" font-family="'TextbookNew-Light'" font-size="14">рабочий</text>
			<text transform="matrix(1 0 0 1 50.1933 297.6866)" font-family="'TextbookNew-Light'" font-size="14">бригада</text>
			<rect x="20.5" y="325" fill="#B9C3C6" width="106.4" height="20.1"/>
			<text transform="matrix(1 0 0 1 53.5955 337.9206)" font-family="'TextbookNew-Light'" font-size="14">мастер</text>
			<rect x="20.5" y="365.6" fill="#B9C3C6" width="106.4" height="20.1"/>
			<text transform="matrix(1 0 0 1 54.2046 378.8481)" font-family="'TextbookNew-Light'" font-size="14">ученик</text>
			<rect x="20.5" y="406.2" fill="#B9C3C6" width="106.4" height="20.1"/>
			<text transform="matrix(1 0 0 1 59.1814 419.7757)" font-family="'TextbookNew-Light'" font-size="14">швея</text>
		</g>
		<text transform="matrix(1 0 0 1 510.0408 297.6866)" font-family="'TextbookNew-Light'" font-size="14">за</text>
		<polygon fill="#FFBA23" points="526.1,386.3 535.1,376.2 526.1,366.2 526.1,366.1 507.9,366.1 507.9,366.3 499,376.2 507.9,386.1 
			507.9,386.3 508,386.3 508,386.3 508,386.3 526,386.3 526,386.3 526.1,386.3 526.1,386.3 		"/>
		<text transform="matrix(1 0 0 1 510.3741 379.3533)" font-family="'TextbookNew-Light'" font-size="14">до</text>
		<g>
			<rect x="339" y="243.6" fill="#B9C3C6" width="106.4" height="20.1"/>
			<rect x="339" y="284.2" fill="#B9C3C6" width="106.4" height="20.1"/>
			<text transform="matrix(1 0 0 1 372.7002 256.5687)" font-family="'TextbookNew-Light'" font-size="14">работу</text>
			<text transform="matrix(1 0 0 1 376.886 297.4366)" font-family="'TextbookNew-Light'" font-size="14">заказ</text>
			<rect x="339" y="324.8" fill="#B9C3C6" width="106.4" height="20.1"/>
			<text transform="matrix(1 0 0 1 368.9547 337.6706)" font-family="'TextbookNew-Light'" font-size="14">задание</text>
			<rect x="339" y="365.4" fill="#B9C3C6" width="106.4" height="20.1"/>
			<text transform="matrix(1 0 0 1 373.3094 378.5981)" font-family="'TextbookNew-Light'" font-size="14">деталь</text>
			<rect x="339" y="406" fill="#B9C3C6" width="106.4" height="20.1"/>
			<text transform="matrix(1 0 0 1 381.086 419.5257)" font-family="'TextbookNew-Light'" font-size="14">тест</text>
		</g>
		<g>
			<rect x="588.6" y="243.6" fill="#B9C3C6" width="106.4" height="20.1"/>
			<rect x="588.6" y="284.2" fill="#B9C3C6" width="106.4" height="20.1"/>
			<text transform="matrix(1 0 0 1 631.8762 256.5687)" font-family="'TextbookNew-Light'" font-size="14">час</text>
			<text transform="matrix(1 0 0 1 628.1105 297.4366)" font-family="'TextbookNew-Light'" font-size="14">день</text>
			<rect x="588.6" y="324.8" fill="#B9C3C6" width="106.4" height="20.1"/>
			<text transform="matrix(1 0 0 1 621.369 337.6706)" font-family="'TextbookNew-Light'" font-size="14">минуту</text>
			<rect x="588.6" y="365.4" fill="#B9C3C6" width="106.4" height="20.1"/>
			<text transform="matrix(1 0 0 1 625.3546 378.5981)" font-family="'TextbookNew-Light'" font-size="14">время</text>
			<rect x="588.6" y="406" fill="#B9C3C6" width="106.4" height="20.1"/>
			<text transform="matrix(1 0 0 1 625.8373 419.5257)" font-family="'TextbookNew-Light'" font-size="14">конца</text>
		</g>
		<g>
			<polygon fill="#FFBA23" points="275.7,344.9 284.8,334.9 275.7,324.9 275.7,324.8 187.6,324.8 187.6,324.9 178.6,334.9 
				187.6,344.8 187.6,344.9 187.7,344.9 187.7,344.9 187.7,344.9 275.7,344.9 275.7,345 275.7,344.9 275.7,344.9 			"/>
			<g>
				<text transform="matrix(1 0 0 1 200.4279 337.9205)" font-family="'TextbookNew-Light'" font-size="14">выполняет</text>
			</g>
		</g>
		<g>
			<text transform="matrix(1 0 0 1 200.4279 560.9205)" font-family="'TextbookNew-Light'" font-size="14">проезжает</text>
		</g>
		<g>
			<rect x="20.5" y="466.9" fill="#B9C3C6" width="106.4" height="20.1"/>
			<rect x="20.5" y="507.5" fill="#B9C3C6" width="106.4" height="20.1"/>
			<text transform="matrix(1 0 0 1 32.3029 479.8187)" font-family="'TextbookNew-Light'" font-size="14">велосипедист</text>
			<text transform="matrix(1 0 0 1 39.0566 520.6866)" font-family="'TextbookNew-Light'" font-size="14">автомобиль</text>
			<rect x="20.5" y="548" fill="#B9C3C6" width="106.4" height="20.1"/>
			<text transform="matrix(1 0 0 1 51.951 560.9205)" font-family="'TextbookNew-Light'" font-size="14">таксист</text>
			<rect x="20.5" y="588.6" fill="#B9C3C6" width="106.4" height="20.1"/>
			<text transform="matrix(1 0 0 1 37.3618 601.8481)" font-family="'TextbookNew-Light'" font-size="14">мотоциклист</text>
			<rect x="20.5" y="629.2" fill="#B9C3C6" width="106.4" height="20.1"/>
			<text transform="matrix(1 0 0 1 51.0545 642.7758)" font-family="'TextbookNew-Light'" font-size="14">машина</text>
		</g>
		<text transform="matrix(1 0 0 1 510.0408 500.1866)" font-family="'TextbookNew-Light'" font-size="14">за</text>
		<text transform="matrix(1 0 0 1 509.2475 561.1866)" font-family="'TextbookNew-Light'" font-size="14">со</text>
		<g>
			<rect x="339" y="466.6" fill="#B9C3C6" width="106.4" height="20.1"/>
			<rect x="339" y="507.2" fill="#B9C3C6" width="106.4" height="20.1"/>
			<text transform="matrix(1 0 0 1 358.7632 479.5687)" font-family="'TextbookNew-Light'" font-size="14">расстояние</text>
			<text transform="matrix(1 0 0 1 380.7357 520.4366)" font-family="'TextbookNew-Light'" font-size="14">путь</text>
			<rect x="339" y="547.8" fill="#B9C3C6" width="106.4" height="20.1"/>
			<text transform="matrix(1 0 0 1 367.2609 560.6705)" font-family="'TextbookNew-Light'" font-size="14">маршрут</text>
			<rect x="339" y="588.4" fill="#B9C3C6" width="106.4" height="20.1"/>
			<text transform="matrix(1 0 0 1 374.4852 601.5981)" font-family="'TextbookNew-Light'" font-size="14">шоссе</text>
			<rect x="339" y="629" fill="#B9C3C6" width="106.4" height="20.1"/>
			<text transform="matrix(1 0 0 1 379.4972 642.5258)" font-family="'TextbookNew-Light'" font-size="14">мост</text>
		</g>
		<g>
			<rect x="588.6" y="466.6" fill="#B9C3C6" width="106.4" height="20.1"/>
			<rect x="588.6" y="507.2" fill="#B9C3C6" width="106.4" height="20.1"/>
			<text transform="matrix(1 0 0 1 633.314 479.5687)" font-family="'TextbookNew-Light'" font-size="14">час</text>
			<text transform="matrix(1 0 0 1 619.7201 520.4366)" font-family="'TextbookNew-Light'" font-size="14">секунду</text>
			<rect x="588.6" y="547.8" fill="#B9C3C6" width="106.4" height="20.1"/>
			<text transform="matrix(1 0 0 1 611.1804 560.6705)" font-family="'TextbookNew-Light'" font-size="14">скоростью</text>
			<rect x="588.6" y="588.4" fill="#B9C3C6" width="106.4" height="20.1"/>
			<text transform="matrix(1 0 0 1 629.2748 601.5981)" font-family="'TextbookNew-Light'" font-size="14">метр</text>
			<rect x="588.6" y="629" fill="#B9C3C6" width="106.4" height="20.1"/>
			<text transform="matrix(1 0 0 1 636.0583 642.5258)" font-family="'TextbookNew-Light'" font-size="14">км</text>
		</g>
		<line fill="none" stroke="#FFBA23" stroke-width="0.5" stroke-miterlimit="10" x1="126.8" y1="29.5" x2="179.1" y2="111.4"/>
		<line fill="none" stroke="#FFBA23" stroke-width="0.5" stroke-miterlimit="10" x1="126.8" y1="69.9" x2="179.1" y2="111.4"/>
		<line fill="none" stroke="#FFBA23" stroke-width="0.5" stroke-miterlimit="10" x1="126.9" y1="111.4" x2="179.1" y2="111.4"/>
		<line fill="none" stroke="#FFBA23" stroke-width="0.5" stroke-miterlimit="10" x1="127" y1="152.3" x2="179.1" y2="111.4"/>
		<line fill="none" stroke="#FFBA23" stroke-width="0.5" stroke-miterlimit="10" x1="126.8" y1="192.5" x2="179.1" y2="111.4"/>
		<line fill="none" stroke="#FFBA23" stroke-width="0.5" stroke-miterlimit="10" x1="126.7" y1="254" x2="178.6" y2="334.9"/>
		<line fill="none" stroke="#FFBA23" stroke-width="0.5" stroke-miterlimit="10" x1="126.7" y1="295.4" x2="178.6" y2="334.9"/>
		<line fill="none" stroke="#FFBA23" stroke-width="0.5" stroke-miterlimit="10" x1="126.1" y1="335" x2="178.6" y2="334.9"/>
		<line fill="none" stroke="#FFBA23" stroke-width="0.5" stroke-miterlimit="10" x1="126" y1="377.4" x2="178.6" y2="334.9"/>
		<line fill="none" stroke="#FFBA23" stroke-width="0.5" stroke-miterlimit="10" x1="126.7" y1="417.4" x2="178.6" y2="334.9"/>
		<line fill="none" stroke="#FFBA23" stroke-width="0.5" stroke-miterlimit="10" x1="126.7" y1="476.4" x2="179" y2="558"/>
		<line fill="none" stroke="#FFBA23" stroke-width="0.5" stroke-miterlimit="10" x1="126.7" y1="517.7" x2="179" y2="558"/>
		<line fill="none" stroke="#FFBA23" stroke-width="0.5" stroke-miterlimit="10" x1="126.4" y1="558.1" x2="179" y2="558"/>
		<line fill="none" stroke="#FFBA23" stroke-width="0.5" stroke-miterlimit="10" x1="126.7" y1="599.4" x2="178.6" y2="558.2"/>
		<line fill="none" stroke="#FFBA23" stroke-width="0.5" stroke-miterlimit="10" x1="126.7" y1="639.7" x2="178.6" y2="558.2"/>
		<polygon fill="#FFBA23" points="275.7,121.6 284.8,111.6 275.7,101.6 275.7,101.5 187.6,101.5 187.6,101.6 178.6,111.5 
			187.6,121.5 187.6,121.6 187.7,121.6 187.7,121.6 187.7,121.6 275.7,121.6 275.7,121.6 275.7,121.6 275.7,121.6 		"/>
		<g>
			<text transform="matrix(1 0 0 1 204.4279 113.9205)" font-family="'TextbookNew-Light'" font-size="14">проходит</text>
		</g>
		<line fill="none" stroke="#FFBA23" stroke-width="0.5" stroke-miterlimit="10" x1="284.8" y1="111.6" x2="338.7" y2="29.4"/>
		<line fill="none" stroke="#FFBA23" stroke-width="0.5" stroke-miterlimit="10" x1="284.8" y1="111.6" x2="339" y2="69.7"/>
		<line fill="none" stroke="#FFBA23" stroke-width="0.5" stroke-miterlimit="10" x1="284.8" y1="111.6" x2="339.4" y2="111.6"/>
		<line fill="none" stroke="#FFBA23" stroke-width="0.5" stroke-miterlimit="10" x1="284.8" y1="111.6" x2="338.7" y2="153.4"/>
		<line fill="none" stroke="#FFBA23" stroke-width="0.5" stroke-miterlimit="10" x1="284.8" y1="111.6" x2="338.7" y2="193.4"/>
		<line fill="none" stroke="#FFBA23" stroke-width="0.5" stroke-miterlimit="10" x1="445.7" y1="30.4" x2="497.6" y2="51.2"/>
		<line fill="none" stroke="#FFBA23" stroke-width="0.5" stroke-miterlimit="10" x1="533.8" y1="51.2" x2="588.4" y2="29"/>
		<line fill="none" stroke="#FFBA23" stroke-width="0.5" stroke-miterlimit="10" x1="533.1" y1="51.2" x2="588.7" y2="70"/>
		<line fill="none" stroke="#FFBA23" stroke-width="0.5" stroke-miterlimit="10" x1="533.1" y1="51.2" x2="588.7" y2="111.4"/>
		<line fill="none" stroke="#FFBA23" stroke-width="0.5" stroke-miterlimit="10" x1="533.8" y1="112.6" x2="587.7" y2="151.6"/>
		<line fill="none" stroke="#FFBA23" stroke-width="0.5" stroke-miterlimit="10" x1="445.5" y1="69.8" x2="497.6" y2="112.5"/>
		<line fill="none" stroke="#FFBA23" stroke-width="0.5" stroke-miterlimit="10" x1="498.4" y1="51.4" x2="445.4" y2="193.4"/>
		<line fill="none" stroke="#FFBA23" stroke-width="0.5" stroke-miterlimit="10" x1="284" y1="335.4" x2="338.7" y2="253.4"/>
		<line fill="none" stroke="#FFBA23" stroke-width="0.5" stroke-miterlimit="10" x1="284.8" y1="334.9" x2="338.7" y2="294"/>
		<line fill="none" stroke="#FFBA23" stroke-width="0.5" stroke-miterlimit="10" x1="284" y1="335.4" x2="339" y2="335.4"/>
		<line fill="none" stroke="#FFBA23" stroke-width="0.5" stroke-miterlimit="10" x1="284" y1="335.4" x2="339.4" y2="375.7"/>
		<line fill="none" stroke="#FFBA23" stroke-width="0.5" stroke-miterlimit="10" x1="284" y1="335.4" x2="339.4" y2="417.4"/>
		<line fill="none" stroke="#FFBA23" stroke-width="0.5" stroke-miterlimit="10" x1="445" y1="253" x2="497.6" y2="294.5"/>
		<line fill="none" stroke="#FFBA23" stroke-width="0.5" stroke-miterlimit="10" x1="533" y1="295" x2="588.4" y2="253"/>
		<line fill="none" stroke="#FFBA23" stroke-width="0.5" stroke-miterlimit="10" x1="533.8" y1="294.6" x2="588.4" y2="293.7"/>
		<line fill="none" stroke="#FFBA23" stroke-width="0.5" stroke-miterlimit="10" x1="533.8" y1="294.6" x2="588.7" y2="335"/>
		<line fill="none" stroke="#FFBA23" stroke-width="0.5" stroke-miterlimit="10" x1="444.4" y1="294" x2="497.6" y2="294.5"/>
		<line fill="none" stroke="#FFBA23" stroke-width="0.5" stroke-miterlimit="10" x1="444.7" y1="335.4" x2="497.6" y2="294.4"/>
		<line fill="none" stroke="#FFBA23" stroke-width="0.5" stroke-miterlimit="10" x1="445" y1="376.4" x2="497.6" y2="294.5"/>
		<line fill="none" stroke="#FFBA23" stroke-width="0.5" stroke-miterlimit="10" x1="445" y1="416.7" x2="497.6" y2="294.5"/>
		<line fill="none" stroke="#FFBA23" stroke-width="0.5" stroke-miterlimit="10" x1="284.8" y1="558.2" x2="339.4" y2="476.4"/>
		<line fill="none" stroke="#FFBA23" stroke-width="0.5" stroke-miterlimit="10" x1="284.8" y1="558.2" x2="339.4" y2="516"/>
		<line fill="none" stroke="#FFBA23" stroke-width="0.5" stroke-miterlimit="10" x1="284" y1="558" x2="339" y2="558"/>
		<line fill="none" stroke="#FFBA23" stroke-width="0.5" stroke-miterlimit="10" x1="284.8" y1="558.2" x2="339" y2="599.7"/>
		<line fill="none" stroke="#FFBA23" stroke-width="0.5" stroke-miterlimit="10" x1="284.8" y1="558.2" x2="338.7" y2="639.4"/>
		<line fill="none" stroke="#FFBA23" stroke-width="0.5" stroke-miterlimit="10" x1="445" y1="475.7" x2="497.6" y2="497.2"/>
		<line fill="none" stroke="#FFBA23" stroke-width="0.5" stroke-miterlimit="10" x1="497.6" y1="497.2" x2="445.7" y2="517.2"/>
		<line fill="none" stroke="#FFBA23" stroke-width="0.5" stroke-miterlimit="10" x1="498.1" y1="497.2" x2="445" y2="558"/>
		<line fill="none" stroke="#FFBA23" stroke-width="0.5" stroke-miterlimit="10" x1="497.6" y1="497.2" x2="445.4" y2="598.7"/>
		<line fill="none" stroke="#FFBA23" stroke-width="0.5" stroke-miterlimit="10" x1="445.7" y1="639.1" x2="497.6" y2="497.5"/>
		<line fill="none" stroke="#FFBA23" stroke-width="0.5" stroke-miterlimit="10" x1="533" y1="497.4" x2="588.4" y2="475.4"/>
		<line fill="none" stroke="#FFBA23" stroke-width="0.5" stroke-miterlimit="10" x1="532" y1="497" x2="588.4" y2="517.4"/>
		<line fill="none" stroke="#FFBA23" stroke-width="0.5" stroke-miterlimit="10" x1="533" y1="557.4" x2="588" y2="557.4"/>
		<line fill="none" stroke="#FFBA23" stroke-width="0.5" stroke-miterlimit="10" x1="445.1" y1="112.7" x2="497.6" y2="112.5"/>
		<line fill="none" stroke="#FFBA23" stroke-width="0.5" stroke-miterlimit="10" x1="445.4" y1="151" x2="476.6" y2="173"/>
		<line fill="none" stroke="#FFBA23" stroke-width="0.5" stroke-miterlimit="10" x1="558.6" y1="173.1" x2="588" y2="193.7"/>
		<line fill="none" stroke="#FFBA23" stroke-width="0.5" stroke-miterlimit="10" x1="445.4" y1="151" x2="497.6" y2="112.5"/>
		<line fill="none" stroke="#FFBA23" stroke-width="0.5" stroke-miterlimit="10" x1="445.7" y1="30.4" x2="477.1" y2="173.4"/>
		<line fill="none" stroke="#FFBA23" stroke-width="0.5" stroke-miterlimit="10" x1="445.5" y1="69.8" x2="477.1" y2="173.4"/>
		<line fill="none" stroke="#FFBA23" stroke-width="0.5" stroke-miterlimit="10" x1="533.8" y1="294.6" x2="588.7" y2="377.5"/>
		<line fill="none" stroke="#FFBA23" stroke-width="0.5" stroke-miterlimit="10" x1="445" y1="416.7" x2="499" y2="376.2"/>
		<line fill="none" stroke="#FFBA23" stroke-width="0.5" stroke-miterlimit="10" x1="535.1" y1="376.2" x2="588.4" y2="417.5"/>
		<line fill="none" stroke="#FFBA23" stroke-width="0.5" stroke-miterlimit="10" x1="445.3" y1="557.5" x2="497.7" y2="557.5"/>
		<line fill="none" stroke="#FFBA23" stroke-width="0.5" stroke-miterlimit="10" x1="445.7" y1="517.2" x2="497.7" y2="557.5"/>
		<line fill="none" stroke="#FFBA23" stroke-width="0.5" stroke-miterlimit="10" x1="445.4" y1="475.8" x2="497.7" y2="557.5"/>
		<line fill="none" stroke="#FFBA23" stroke-width="0.5" stroke-miterlimit="10" x1="445.3" y1="557.5" x2="478.5" y2="620"/>
		<line fill="none" stroke="#FFBA23" stroke-width="0.5" stroke-miterlimit="10" x1="560.6" y1="620.1" x2="588.4" y2="640.3"/>
		<line fill="none" stroke="#FFBA23" stroke-width="0.5" stroke-miterlimit="10" x1="497.6" y1="557.5" x2="445.4" y2="598.7"/>
		<line fill="none" stroke="#FFBA23" stroke-width="0.5" stroke-miterlimit="10" x1="497.6" y1="557.5" x2="445.6" y2="639.7"/>
		<line fill="none" stroke="#FFBA23" stroke-width="0.5" stroke-miterlimit="10" x1="478.5" y1="620" x2="445.6" y2="639.7"/>
		<line fill="none" stroke="#FFBA23" stroke-width="0.5" stroke-miterlimit="10" x1="478.5" y1="620" x2="445.4" y2="598.7"/>
		<line fill="none" stroke="#FFBA23" stroke-width="0.5" stroke-miterlimit="10" x1="478.5" y1="620" x2="445.4" y2="517.4"/>
		<line fill="none" stroke="#FFBA23" stroke-width="0.5" stroke-miterlimit="10" x1="478.7" y1="619.7" x2="445.4" y2="476.1"/>
		<line fill="none" stroke="#FFBA23" stroke-width="0.5" stroke-miterlimit="10" x1="560.2" y1="620.2" x2="588.7" y2="596.8"/>
		<line fill="none" stroke="#FFBA23" stroke-width="0.5" stroke-miterlimit="10" x1="445.5" y1="69.8" x2="498.4" y2="51.4"/>
		<line fill="none" stroke="#FFBA23" stroke-width="0.5" stroke-miterlimit="10" x1="445.4" y1="151" x2="498.4" y2="51.4"/>
		<line fill="none" stroke="#FFBA23" stroke-width="0.5" stroke-miterlimit="10" x1="445.7" y1="254" x2="499" y2="376.2"/>
		<line fill="none" stroke="#FFBA23" stroke-width="0.5" stroke-miterlimit="10" x1="444.4" y1="294" x2="499" y2="376.2"/>
		<line fill="none" stroke="#FFBA23" stroke-width="0.5" stroke-miterlimit="10" x1="444.7" y1="335.4" x2="499" y2="376.2"/>
	</g>
</g>
</svg>
